# xmcd CD database file
#
# Track frame offsets:
#	150
#	8717
#	16684
#	27952
#	34095
#	43113
#	54383
#	61566
#	79438
#	95355
#	106623
#	117892
#	125304
#	136421
#	144601
#	149867
#	161435
#	170602
#	180671
#	189239
#	196892
#	210250
#	222159
#	237496
#	256714
#	263931
#
# Disc length: 3647 seconds
#
# Revision: 0
# Processed by: cddbd v1.5.1PL0 Copyright (c) Steve Scherf et al.
# Submitted via: CDex 1.51
#
DISCID=600e3d1a
DTITLE=Pico&TAM - Keyゲーム音楽 ピアノ&バイオリン生演奏アレンジ
DYEAR=2005
DGENRE=Game
TTITLE0=朝影(kanon)
TTITLE1=笑顔の向こう側に(kanon)
TTITLE2=冬の花火(kanon)
TTITLE3=約束(kanon)
TTITLE4=夢の跡(kanon)
TTITLE5=Last regrets(kanon)
TTITLE6=回想録(Air)
TTITLE7=鳥の詩(Air)
TTITLE8=夏影(Air)
TTITLE9=ふたり(Air)
TTITLE10=夢語り(Air)
TTITLE11=川(Air)
TTITLE12=緑(Air)
TTITLE13=銀色(Air)
TTITLE14=汐(CLANNAD)
TTITLE15=東風(CLANNAD)
TTITLE16=日々の遑(CLANNAD)
TTITLE17=白詰草(CLANNAD)
TTITLE18=は〜りぃすたー(CLANNAD)
TTITLE19=存在(CLANNAD)
TTITLE20=空に光る(CLANNAD)
TTITLE21=渚(CLANNAD)
TTITLE22=Gentle Jena(Planetarian〜ちいあなほしのゆめ〜)
TTITLE23=ボーナストラック1
TTITLE24=ボーナストラック2
TTITLE25=ボーナストラック3
EXTD=YEAR: 2005
EXTT0=
EXTT1=
EXTT2=
EXTT3=
EXTT4=
EXTT5=
EXTT6=
EXTT7=
EXTT8=
EXTT9=
EXTT10=
EXTT11=
EXTT12=
EXTT13=
EXTT14=
EXTT15=
EXTT16=
EXTT17=
EXTT18=
EXTT19=
EXTT20=
EXTT21=
EXTT22=
EXTT23=
EXTT24=
EXTT25=
PLAYORDER=
